<svg xmlns="http://www.w3.org/2000/svg" xml:space="preserve" width="200" height="200" viewBox="0 0 52.917 52.917">
  <path
    d="M124.903 143.995s-3.904-5.66-.684-9.502c.252-.394.413 1.056.413 1.056s.929-3.437 7.75-5.715c.471.23.101 1.038.101 1.038s4.862-1.746 7.164-3.33c2.302-1.585 1.099 1.414-1.699 4.503-1.314 1.284-2.404 1.53-.65 2.554 2.087 1.218 1.891 2.453 1.891 2.453s3.591-1.192 6.674-7.612c.154-.46.997-.686.692.907 0 0 4.572-6.357 5.55-8.497.98-2.141 3.532 5.077 1.258 8.97 0 0 5.384-4.852.83 5.227 0 0 2.216.117-1.246 5.356 0 0 5.402-1.223-3.132 5.975 0 0 4.887-.424-1.366 2.95 0 0-4.455 2.665-8.99-.022-1.195-.709-1.803-.839-.392 1.75 0 0 4.801 7.038 3.515 8.609 0 0 .32 3.491 5.012 7.759 0 0 4.39 4.514-4.706-.717-.727-.403-.04.732-5.65-4.059 0 0 1.154 4.443-4.201-1.998 0 0-1.52-1.785-1.886-4.818 0 0-1.777 1.364-1.81-2.736 0 0-1.112-6.57 3.442-10.2 1.24-1.018 1.358-3.237-1.012-4.172-2.263-.892-5.755-1.192-6.23 2.645-.396 1.488-.007 1.744-.638 1.626z"
    style=";fill-opacity:1;stroke:none;stroke-width:.264583;stroke-opacity:1"
    transform="translate(-110.928 -119.938)" />
</svg>
